<svg xmlns="http://www.w3.org/2000/svg" xmlns:xlink="http://www.w3.org/1999/xlink" width="1200" zoomAndPan="magnify" viewBox="0 0 900 899.99999" height="1200" preserveAspectRatio="xMidYMid meet" version="1.0"><defs><clipPath id="8fc53f43b8"><path d="M 268 596 L 623 596 L 623 792.503906 L 268 792.503906 Z M 268 596 " clip-rule="nonzero"/></clipPath><clipPath id="9418986ec3"><path d="M 121 107.753906 L 769 107.753906 L 769 304 L 121 304 Z M 121 107.753906 " clip-rule="nonzero"/></clipPath><clipPath id="623bf2aa87"><path d="M 184.902344 211.601562 L 189.160156 211.601562 L 189.160156 215.246094 L 184.902344 215.246094 Z M 184.902344 211.601562 " clip-rule="nonzero"/></clipPath><clipPath id="e3e03c1618"><path d="M 189.148438 212.925781 C 187.273438 215.925781 185.476562 215.398438 185.101562 214.726562 C 184.726562 214.125 185.023438 212.25 185.625 211.800781 C 186.226562 211.351562 188.625 211.949219 188.625 211.949219 " clip-rule="nonzero"/></clipPath><clipPath id="a985fe7182"><path d="M 0.902344 0.601562 L 5.160156 0.601562 L 5.160156 4.246094 L 0.902344 4.246094 Z M 0.902344 0.601562 " clip-rule="nonzero"/></clipPath><clipPath id="93348cd6df"><path d="M 5.148438 1.925781 C 3.273438 4.925781 1.476562 4.398438 1.101562 3.726562 C 0.726562 3.125 1.023438 1.25 1.625 0.800781 C 2.226562 0.351562 4.625 0.949219 4.625 0.949219 " clip-rule="nonzero"/></clipPath><clipPath id="36b0a5a81a"><rect x="0" width="6" y="0" height="5"/></clipPath></defs><g clip-path="url(#8fc53f43b8)"><path fill="#90caf9" d="M 608.019531 627.429688 C 594.261719 608.324219 572.101562 596.859375 548.789062 596.859375 L 341.683594 596.859375 C 317.992188 596.859375 295.449219 608.324219 281.691406 627.8125 C 267.9375 647.300781 264.496094 672.136719 272.523438 694.683594 L 288.570312 743.59375 C 299.269531 773.015625 327.164062 792.503906 358.117188 792.503906 L 532.359375 792.503906 C 563.3125 792.503906 591.207031 773.015625 601.90625 743.59375 L 617.953125 694.683594 C 625.976562 672.136719 622.15625 646.917969 608.019531 627.429688 Z M 608.019531 627.429688 " fill-opacity="1" fill-rule="nonzero"/></g><path fill="#64b5f6" d="M 681.386719 382.875 C 667.628906 363.769531 645.464844 352.308594 622.15625 352.308594 L 268.320312 352.308594 C 244.628906 352.308594 222.082031 363.769531 208.328125 383.257812 C 194.570312 402.746094 191.132812 427.585938 199.15625 450.128906 L 215.203125 499.039062 C 225.902344 528.460938 253.796875 547.949219 284.75 547.949219 L 605.726562 547.949219 C 636.675781 547.949219 664.570312 528.460938 675.269531 499.039062 L 691.320312 450.128906 C 699.34375 427.585938 695.523438 402.363281 681.386719 382.875 Z M 681.386719 382.875 " fill-opacity="1" fill-rule="nonzero"/><g clip-path="url(#9418986ec3)"><path fill="#2196f3" d="M 754.75 138.324219 C 740.996094 119.21875 718.832031 107.753906 695.523438 107.753906 L 194.953125 107.753906 C 171.261719 107.753906 148.714844 119.21875 134.960938 138.707031 C 121.203125 158.191406 117.765625 183.03125 125.789062 205.574219 L 141.839844 254.484375 C 152.539062 283.910156 180.433594 303.398438 211.382812 303.398438 L 679.09375 303.398438 C 710.042969 303.398438 737.9375 283.910156 748.636719 254.484375 L 764.6875 205.574219 C 772.710938 183.03125 768.890625 157.8125 754.75 138.324219 Z M 754.75 138.324219 " fill-opacity="1" fill-rule="nonzero"/></g><g clip-path="url(#623bf2aa87)"><g clip-path="url(#e3e03c1618)"><g transform="matrix(1, 0, 0, 1, 184, 211)"><g clip-path="url(#36b0a5a81a)"><g clip-path="url(#a985fe7182)"><g clip-path="url(#93348cd6df)"><rect x="-382" width="1296" fill="#0571d3" height="1295.999986" y="-408.999998" fill-opacity="1"/></g></g></g></g></g></g></svg>